<?xml version="1.0" encoding="UTF-8" standalone="no"?>
<svg width="24px" height="24px" viewBox="0 0 24 24" version="1.1" xmlns="http://www.w3.org/2000/svg" xmlns:xlink="http://www.w3.org/1999/xlink">
<g transform="translate(0.000000, -1.000000)" fill="#231F1F">
  <path d="M12,0.998 C5.373,0.998 0,6.37 0,12.998 C0,19.626 5.373,24.997 12,24.998 C18.627,24.998 23.999,19.626 23.999,12.998 C23.999,6.37 18.627,0.998 12,0.998 L12,0.998 Z M19.778,20.776 C17.786,22.767 15.039,23.998 12,23.998 C8.961,23.998 6.214,22.767 4.222,20.776 C2.231,18.784 1,16.037 1,12.998 C1,9.959 2.231,7.212 4.222,5.22 C6.214,3.228 8.961,1.998 12,1.998 C15.039,1.998 17.786,3.228 19.778,5.22 C21.769,7.212 23,9.959 23,12.998 C23,16.037 21.769,18.784 19.778,20.776 L19.778,20.776 Z"></path>
  <path d="M16.886,9.417 L9.499,16.804 L6.749,14.054 C6.554,13.859 6.237,13.859 6.042,14.054 C5.847,14.249 5.847,14.566 6.042,14.761 L9.146,17.865 C9.341,18.061 9.658,18.061 9.853,17.865 L17.594,10.125 C17.788,9.929 17.788,9.613 17.594,9.417 C17.398,9.222 17.082,9.222 16.886,9.417"></path>
</g>
</svg>
