<?xml version="1.0" encoding="UTF-8" standalone="no"?>
<svg width="24px" height="24px" xmlns="http://www.w3.org/2000/svg" xmlns:xlink="http://www.w3.org/1999/xlink">
  <g id="close" fill="#000000">
      <path d="M12,0 C5.383,0 0,5.383 0,12 C0,18.617 5.383,24 12,24 C18.617,24 24,18.617 24,12 C24,5.383 18.617,0 12,0 L12,0 Z M16.343,15.636 C16.538,15.831 16.538,16.148 16.343,16.343 C16.245,16.441 16.117,16.49 15.989,16.49 C15.861,16.49 15.733,16.441 15.636,16.343 L11.99,12.697 L8.343,16.343 C8.245,16.441 8.117,16.49 7.989,16.49 C7.861,16.49 7.733,16.441 7.636,16.343 C7.44,16.148 7.44,15.831 7.636,15.636 L11.282,11.99 L7.636,8.343 C7.44,8.148 7.44,7.831 7.636,7.636 C7.831,7.441 8.148,7.441 8.343,7.636 L11.99,11.282 L15.636,7.636 C15.831,7.441 16.147,7.441 16.343,7.636 C16.538,7.831 16.538,8.148 16.343,8.343 L12.696,11.99 L16.343,15.636 L16.343,15.636 Z"></path>
  </g>
</svg>
