<?xml version="1.0" encoding="utf-8"?>
<!DOCTYPE svg PUBLIC "-//W3C//DTD SVG 1.1//EN" "http://www.w3.org/Graphics/SVG/1.1/DTD/svg11.dtd">
<svg version="1.1" id="Layer_1" xmlns="http://www.w3.org/2000/svg" xmlns:xlink="http://www.w3.org/1999/xlink" x="0px" y="0px"
	 viewBox="0 0 48 48" enable-background="new 0 0 48 48" xml:space="preserve">
<g>
	<defs>
		<path id="SVGID_1_" d="M45,0H3C1.3,0,0,1.3,0,3v32c0,1.7,1.3,3,3,3h15c0,0.9,0,2.3,0,2.9l0,0.1c-0.1,0.3-0.4,0.8-0.8,1.3
			c-0.6,0.9-1.3,1.9-1.9,2.7c-0.6,0.8-1.1,1.3-1.1,1.3c-0.2,0.3-0.3,0.7-0.1,1.1c0.2,0.3,0.5,0.6,0.9,0.6h18c0.4,0,0.7-0.2,0.9-0.6
			c0.2-0.3,0.1-0.8-0.1-1.1c0,0-0.2-0.3-0.6-0.8c-0.6-0.7-1.4-1.8-2.1-2.8c-0.3-0.5-0.6-1-0.8-1.3c-0.1-0.2-0.2-0.3-0.2-0.4l0-0.1
			V38h15c1.7,0,3-1.3,3-3l0-32C48,1.3,46.7,0,45,0z"/>
	</defs>
	<clipPath id="SVGID_2_">
		<use xlink:href="#SVGID_1_"  overflow="visible"/>
	</clipPath>
	<rect x="-5" y="-5" clip-path="url(#SVGID_2_)" fill="#FFFFFF" width="58" height="58"/>
</g>
<g>
	<defs>
		<path id="SVGID_3_" d="M19,5h24v2H19V5z M19,23h24v2H19V23z M19,11h10v2H19V11z M35,11h8v2h-8V11z M19,17h17v2H19V17z M2,27.3V2.7
			C2,2.3,2.4,2,3,2h11v26H3C2.4,28,2,27.7,2,27.3z M5,5h6v2H5V5z M5,11h6v2H5V11z M5,17h6v2H5V17z M5,23h6v2H5V23z M45,36H3
			c-0.6,0-1-0.4-1-1v-5h44v5C46,35.6,45.5,36,45,36z M30.6,45.5c0.1,0.2,0.3,0.3,0.4,0.5H17.1c0.2-0.3,0.5-0.7,0.8-1
			c0.5-0.7,1-1.4,1.4-2.1c0.2-0.3,0.4-0.6,0.5-0.9c0.1-0.3,0.2-0.6,0.3-1v-3h8v3c0,0.4,0.1,0.7,0.3,1C28.7,43,29.7,44.3,30.6,45.5z
			 M16.7,2h28.6C45.7,2,46,2.4,46,3v25H16V3C16,2.4,16.3,2,16.7,2z M45,0H3C1.3,0,0,1.3,0,3v32c0,1.7,1.3,3,3,3h15
			c0,0.9,0,2.3,0,2.9l0,0.1c-0.1,0.3-0.4,0.8-0.8,1.3c-0.6,0.9-1.3,1.9-1.9,2.7c-0.6,0.8-1.1,1.3-1.1,1.3c-0.2,0.3-0.3,0.7-0.1,1.1
			c0.2,0.3,0.5,0.6,0.9,0.6h18c0.4,0,0.7-0.2,0.9-0.6c0.2-0.3,0.1-0.8-0.1-1.1c0,0-0.2-0.3-0.6-0.8c-0.6-0.7-1.4-1.8-2.1-2.8
			c-0.3-0.5-0.6-1-0.8-1.3c-0.1-0.2-0.2-0.3-0.2-0.4l0-0.1V38h15c1.7,0,3-1.3,3-3l0-32C48,1.3,46.7,0,45,0z"/>
	</defs>
	<clipPath id="SVGID_4_">
		<use xlink:href="#SVGID_3_"  overflow="visible"/>
	</clipPath>
	<rect x="-5" y="-5" clip-path="url(#SVGID_4_)" fill="#231F20" width="58" height="58"/>
</g>
</svg>
