<?xml version="1.0" encoding="utf-8"?>
<!DOCTYPE svg PUBLIC "-//W3C//DTD SVG 1.1//EN" "http://www.w3.org/Graphics/SVG/1.1/DTD/svg11.dtd">
<svg version="1.1" xmlns="http://www.w3.org/2000/svg" xmlns:xlink="http://www.w3.org/1999/xlink" x="0px" y="0px"
	 viewBox="0 0 48 48" enable-background="new 0 0 48 48" xml:space="preserve">
<g>
	<defs>
		<path id="SVGID_1_" d="M48,31C48,31,48,31,48,31l0-28c0-1.7-1.3-3-3-3H3C1.3,0,0,1.3,0,3v42c0,1.7,1.3,3,3,3h42c1.7,0,3-1.3,3-3
			L48,31C48,31,48,31,48,31z"/>
	</defs>
	<clipPath id="SVGID_2_">
		<use xlink:href="#SVGID_1_"  overflow="visible"/>
	</clipPath>
	<rect x="-5" y="-5" clip-path="url(#SVGID_2_)" fill="#FFFFFF" width="58" height="58"/>
</g>
<g>
	<defs>
		<path id="SVGID_3_" d="M45,46H32v-7c0-0.6-0.4-1-1-1s-1,0.4-1,1v7H3c-0.6,0-1-0.4-1-1V26h14v8.6l-4.4-4.4c-0.4-0.4-1-0.4-1.4,0
			c-0.4,0.4-0.4,1,0,1.4l6.1,6.1c0,0,0,0,0,0c0.1,0.1,0.2,0.1,0.3,0.2C16.7,38,16.9,38,17,38c0,0,0,0,0,0c0.1,0,0.3,0,0.4-0.1
			c0.1,0,0.2-0.1,0.3-0.2c0,0,0,0,0,0c0,0,0,0,0,0c0.1-0.1,0.2-0.2,0.2-0.3c0-0.1,0-0.2,0.1-0.3c0,0,0-0.1,0-0.1V13c0-0.6-0.4-1-1-1
			s-1,0.4-1,1v11H2V12h7c0.6,0,1-0.4,1-1V2h20v6c0,0.6,0.4,1,1,1s1-0.4,1-1V2h13c0.6,0,1,0.4,1,1v27H32v-9.6l4.4,4.4
			c0.4,0.4,1,0.4,1.4,0c0.4-0.4,0.4-1,0-1.4l-6.1-6.1c0,0,0,0,0,0c-0.1-0.1-0.2-0.2-0.3-0.2C31.3,17,31.1,17,31,17c0,0,0,0,0,0
			c-0.1,0-0.3,0-0.4,0.1c-0.1,0-0.2,0.1-0.3,0.2c0,0,0,0,0,0c0,0,0,0,0,0.1c-0.1,0.1-0.1,0.2-0.2,0.3C30,17.7,30,17.9,30,18v13
			c0,0.6,0.4,1,1,1h15v13C46,45.6,45.6,46,45,46z M3,2h5v8H2V3C2,2.4,2.4,2,3,2z M48,31C48,31,48,31,48,31l0-28c0-1.7-1.3-3-3-3H3
			C1.3,0,0,1.3,0,3v42c0,1.7,1.3,3,3,3h42c1.7,0,3-1.3,3-3L48,31C48,31,48,31,48,31z"/>
	</defs>
	<clipPath id="SVGID_4_">
		<use xlink:href="#SVGID_3_"  overflow="visible"/>
	</clipPath>
	<rect x="-5" y="-5" clip-path="url(#SVGID_4_)" fill="#231F20" width="58" height="58"/>
</g>
</svg>
