<?xml version="1.0" encoding="utf-8"?>
<!DOCTYPE svg PUBLIC "-//W3C//DTD SVG 1.1//EN" "http://www.w3.org/Graphics/SVG/1.1/DTD/svg11.dtd">
<svg version="1.1"
	 xmlns="http://www.w3.org/2000/svg" xmlns:xlink="http://www.w3.org/1999/xlink" viewBox="-373 282 44 49" xml:space="preserve">
	<g>
		<path id="Path-Copy-2" fill="#FFFFFF" d="M-332,282h-38c-1.7,0-3,1.3-3,3v42c0,1.7,1.3,3,3,3h38c1.7,0,3-1.3,3-3v-42
			C-329,283.3-330.3,282-332,282L-332,282z"/>
	</g>
	<g>
		<path fill="#000" d="M-332,282h-38c-1.7,0-3,1.3-3,3v42c0,1.7,1.3,3,3,3h38c1.7,0,3-1.3,3-3v-42
			C-329,283.3-330.3,282-332,282L-332,282z M-370,284h3v3c0,0.6,0.4,1,1,1s1-0.4,1-1v-3h4v3c0,0.6,0.4,1,1,1s1-0.4,1-1v-3h4v3
			c0,0.6,0.4,1,1,1s1-0.4,1-1v-3h4v3c0,0.6,0.4,1,1,1s1-0.4,1-1v-3h4v3c0,0.6,0.4,1,1,1s1-0.4,1-1v-3h4v3c0,0.6,0.4,1,1,1
			s1-0.4,1-1v-3h3c0.6,0,1,0.4,1,1v5h-40v-5C-371,284.4-370.6,284-370,284L-370,284z M-332,328h-38c-0.6,0-1-0.4-1-1v-35h40v35
			C-331,327.6-331.4,328-332,328z M-367,312h20v2h-20V312z M-351,306h14v2h-14V306z M-367,306h10v2h-10V306z M-367,318h30v2
			h-30V318z M-367,300h24v2h-24V300z"/>
	</g>
</svg>
